<svg id="visual" viewBox="0 0 900 600" width="900" height="600" xmlns="http://www.w3.org/2000/svg" xmlns:xlink="http://www.w3.org/1999/xlink" version="1.1"><g stroke-width="1" stroke-linejoin="bevel"><path d="M479 281L393 310L460 395Z" fill="#181d1f" stroke="#181d1f"></path><path d="M393 310L382 391L460 395Z" fill="#1f2527" stroke="#1f2527"></path><path d="M460 395L573 363L479 281Z" fill="#2d3336" stroke="#2d3336"></path><path d="M271 232L300 337L393 310Z" fill="#2d3336" stroke="#2d3336"></path><path d="M393 310L300 337L382 391Z" fill="#1f2527" stroke="#1f2527"></path><path d="M382 391L439 490L460 395Z" fill="#454b4e" stroke="#454b4e"></path><path d="M460 395L583 493L573 363Z" fill="#2d3336" stroke="#2d3336"></path><path d="M322 489L439 490L382 391Z" fill="#262c2e" stroke="#262c2e"></path><path d="M479 281L374 197L393 310Z" fill="#000000" stroke="#000000"></path><path d="M573 363L615 310L479 281Z" fill="#000000" stroke="#000000"></path><path d="M479 281L483 165L374 197Z" fill="#262c2e" stroke="#262c2e"></path><path d="M636 199L483 165L479 281Z" fill="#1f2527" stroke="#1f2527"></path><path d="M300 337L284 420L382 391Z" fill="#262c2e" stroke="#262c2e"></path><path d="M426 600L486 517L439 490Z" fill="#262c2e" stroke="#262c2e"></path><path d="M439 490L486 517L460 395Z" fill="#4d5356" stroke="#4d5356"></path><path d="M573 363L735 403L615 310Z" fill="#3d4346" stroke="#3d4346"></path><path d="M284 420L322 489L382 391Z" fill="#4d5356" stroke="#4d5356"></path><path d="M374 197L271 232L393 310Z" fill="#000000" stroke="#000000"></path><path d="M300 337L214 369L284 420Z" fill="#262c2e" stroke="#262c2e"></path><path d="M486 517L583 493L460 395Z" fill="#3d4346" stroke="#3d4346"></path><path d="M483 165L388 117L374 197Z" fill="#4d5356" stroke="#4d5356"></path><path d="M374 197L277 104L271 232Z" fill="#050e11" stroke="#050e11"></path><path d="M735 403L665 261L615 310Z" fill="#1f2527" stroke="#1f2527"></path><path d="M615 310L636 199L479 281Z" fill="#353b3e" stroke="#353b3e"></path><path d="M665 261L636 199L615 310Z" fill="#262c2e" stroke="#262c2e"></path><path d="M483 165L478 82L388 117Z" fill="#1f2527" stroke="#1f2527"></path><path d="M177 316L214 369L300 337Z" fill="#262c2e" stroke="#262c2e"></path><path d="M284 420L192 469L322 489Z" fill="#1f2527" stroke="#1f2527"></path><path d="M636 84L478 82L483 165Z" fill="#181d1f" stroke="#181d1f"></path><path d="M322 489L426 600L439 490Z" fill="#050e11" stroke="#050e11"></path><path d="M486 517L508 600L583 493Z" fill="#101718" stroke="#101718"></path><path d="M426 600L508 600L486 517Z" fill="#181d1f" stroke="#181d1f"></path><path d="M200 193L177 316L271 232Z" fill="#2d3336" stroke="#2d3336"></path><path d="M271 232L177 316L300 337Z" fill="#2d3336" stroke="#2d3336"></path><path d="M665 261L702 232L636 199Z" fill="#050e11" stroke="#050e11"></path><path d="M636 199L636 84L483 165Z" fill="#3d4346" stroke="#3d4346"></path><path d="M735 403L702 232L665 261Z" fill="#000000" stroke="#000000"></path><path d="M277 104L200 193L271 232Z" fill="#3d4346" stroke="#3d4346"></path><path d="M379 0L277 104L388 117Z" fill="#000000" stroke="#000000"></path><path d="M388 117L277 104L374 197Z" fill="#353b3e" stroke="#353b3e"></path><path d="M131 372L192 469L214 369Z" fill="#2d3336" stroke="#2d3336"></path><path d="M214 369L192 469L284 420Z" fill="#4d5356" stroke="#4d5356"></path><path d="M322 489L323 600L426 600Z" fill="#2d3336" stroke="#2d3336"></path><path d="M192 600L323 600L322 489Z" fill="#4d5356" stroke="#4d5356"></path><path d="M730 472L735 403L583 493Z" fill="#4d5356" stroke="#4d5356"></path><path d="M583 493L735 403L573 363Z" fill="#2d3336" stroke="#2d3336"></path><path d="M508 600L607 600L583 493Z" fill="#262c2e" stroke="#262c2e"></path><path d="M728 107L636 84L636 199Z" fill="#1f2527" stroke="#1f2527"></path><path d="M666 600L730 472L583 493Z" fill="#181d1f" stroke="#181d1f"></path><path d="M177 316L131 372L214 369Z" fill="#4d5356" stroke="#4d5356"></path><path d="M65 263L131 372L177 316Z" fill="#4d5356" stroke="#4d5356"></path><path d="M277 104L195 129L200 193Z" fill="#1f2527" stroke="#1f2527"></path><path d="M200 193L104 209L177 316Z" fill="#101718" stroke="#101718"></path><path d="M636 84L511 0L478 82Z" fill="#353b3e" stroke="#353b3e"></path><path d="M478 82L379 0L388 117Z" fill="#353b3e" stroke="#353b3e"></path><path d="M277 104L224 0L195 129Z" fill="#181d1f" stroke="#181d1f"></path><path d="M511 0L379 0L478 82Z" fill="#181d1f" stroke="#181d1f"></path><path d="M607 600L666 600L583 493Z" fill="#2d3336" stroke="#2d3336"></path><path d="M702 232L728 107L636 199Z" fill="#181d1f" stroke="#181d1f"></path><path d="M636 84L619 0L511 0Z" fill="#181d1f" stroke="#181d1f"></path><path d="M763 98L728 107L831 215Z" fill="#454b4e" stroke="#454b4e"></path><path d="M666 600L766 506L730 472Z" fill="#3d4346" stroke="#3d4346"></path><path d="M730 472L818 438L735 403Z" fill="#4d5356" stroke="#4d5356"></path><path d="M735 403L833 337L702 232Z" fill="#2d3336" stroke="#2d3336"></path><path d="M195 129L104 209L200 193Z" fill="#181d1f" stroke="#181d1f"></path><path d="M192 469L192 600L322 489Z" fill="#181d1f" stroke="#181d1f"></path><path d="M77 516L192 600L192 469Z" fill="#000000" stroke="#000000"></path><path d="M718 0L619 0L636 84Z" fill="#2d3336" stroke="#2d3336"></path><path d="M379 0L266 0L277 104Z" fill="#2d3336" stroke="#2d3336"></path><path d="M195 129L109 85L104 209Z" fill="#1f2527" stroke="#1f2527"></path><path d="M766 506L818 438L730 472Z" fill="#181d1f" stroke="#181d1f"></path><path d="M818 438L833 337L735 403Z" fill="#050e11" stroke="#050e11"></path><path d="M104 209L65 263L177 316Z" fill="#353b3e" stroke="#353b3e"></path><path d="M131 372L77 516L192 469Z" fill="#3d4346" stroke="#3d4346"></path><path d="M831 215L728 107L702 232Z" fill="#353b3e" stroke="#353b3e"></path><path d="M728 107L718 0L636 84Z" fill="#1f2527" stroke="#1f2527"></path><path d="M833 337L831 215L702 232Z" fill="#101718" stroke="#101718"></path><path d="M266 0L224 0L277 104Z" fill="#101718" stroke="#101718"></path><path d="M0 167L0 270L65 263Z" fill="#1f2527" stroke="#1f2527"></path><path d="M0 433L77 516L131 372Z" fill="#454b4e" stroke="#454b4e"></path><path d="M224 0L109 85L195 129Z" fill="#353b3e" stroke="#353b3e"></path><path d="M778 0L718 0L763 98Z" fill="#050e11" stroke="#050e11"></path><path d="M763 98L718 0L728 107Z" fill="#262c2e" stroke="#262c2e"></path><path d="M77 516L100 600L192 600Z" fill="#101718" stroke="#101718"></path><path d="M900 396L900 325L833 337Z" fill="#000000" stroke="#000000"></path><path d="M833 337L900 325L831 215Z" fill="#3d4346" stroke="#3d4346"></path><path d="M831 215L900 126L763 98Z" fill="#454b4e" stroke="#454b4e"></path><path d="M0 167L65 263L104 209Z" fill="#101718" stroke="#101718"></path><path d="M65 263L0 433L131 372Z" fill="#454b4e" stroke="#454b4e"></path><path d="M77 516L0 600L100 600Z" fill="#353b3e" stroke="#353b3e"></path><path d="M900 481L900 396L818 438Z" fill="#050e11" stroke="#050e11"></path><path d="M818 438L900 396L833 337Z" fill="#4d5356" stroke="#4d5356"></path><path d="M900 481L818 438L766 506Z" fill="#4d5356" stroke="#4d5356"></path><path d="M0 270L0 433L65 263Z" fill="#3d4346" stroke="#3d4346"></path><path d="M900 325L900 212L831 215Z" fill="#3d4346" stroke="#3d4346"></path><path d="M666 600L834 600L766 506Z" fill="#2d3336" stroke="#2d3336"></path><path d="M900 0L778 0L763 98Z" fill="#181d1f" stroke="#181d1f"></path><path d="M834 600L900 481L766 506Z" fill="#4d5356" stroke="#4d5356"></path><path d="M109 85L0 167L104 209Z" fill="#454b4e" stroke="#454b4e"></path><path d="M0 433L0 510L77 516Z" fill="#181d1f" stroke="#181d1f"></path><path d="M224 0L101 0L109 85Z" fill="#4d5356" stroke="#4d5356"></path><path d="M109 85L0 67L0 167Z" fill="#262c2e" stroke="#262c2e"></path><path d="M900 212L900 126L831 215Z" fill="#050e11" stroke="#050e11"></path><path d="M0 510L0 600L77 516Z" fill="#181d1f" stroke="#181d1f"></path><path d="M101 0L0 67L109 85Z" fill="#262c2e" stroke="#262c2e"></path><path d="M834 600L900 600L900 481Z" fill="#000000" stroke="#000000"></path><path d="M101 0L0 0L0 67Z" fill="#1f2527" stroke="#1f2527"></path><path d="M900 126L900 0L763 98Z" fill="#2d3336" stroke="#2d3336"></path></g></svg>