<svg id="visual" viewBox="0 0 900 600" width="900" height="600" xmlns="http://www.w3.org/2000/svg" xmlns:xlink="http://www.w3.org/1999/xlink" version="1.1"><g stroke-width="1" stroke-linejoin="bevel"><path d="M427.1 263L352.3 281L377.1 286Z" fill="#5478ab" stroke="#5478ab"></path><path d="M427.1 263L298.3 204L352.3 281Z" fill="#96a8ca" stroke="#96a8ca"></path><path d="M427.1 263L436.1 137L298.3 204Z" fill="#d5dbea" stroke="#d5dbea"></path><path d="M436.1 137L289.3 164L298.3 204Z" fill="#8198c0" stroke="#8198c0"></path><path d="M427.1 263L505.9 197L436.1 137Z" fill="#8198c0" stroke="#8198c0"></path><path d="M234.5 247L261.5 284L298.3 204Z" fill="#165a96" stroke="#165a96"></path><path d="M298.3 204L261.5 284L352.3 281Z" fill="#d5dbea" stroke="#d5dbea"></path><path d="M352.3 281L337.3 350L377.1 286Z" fill="#8198c0" stroke="#8198c0"></path><path d="M261.5 284L337.3 350L352.3 281Z" fill="#8198c0" stroke="#8198c0"></path><path d="M514.9 343L514.9 310L427.1 263Z" fill="#ffffff" stroke="#ffffff"></path><path d="M427.1 263L514.9 310L505.9 197Z" fill="#8198c0" stroke="#8198c0"></path><path d="M505.9 197L476.9 116L436.1 137Z" fill="#96a8ca" stroke="#96a8ca"></path><path d="M436.1 137L386.1 64L289.3 164Z" fill="#eaedf4" stroke="#eaedf4"></path><path d="M216.5 171L234.5 247L298.3 204Z" fill="#c0cadf" stroke="#c0cadf"></path><path d="M476.9 116L386.1 64L436.1 137Z" fill="#3b69a0" stroke="#3b69a0"></path><path d="M403.1 390L427.1 263L377.1 286Z" fill="#c0cadf" stroke="#c0cadf"></path><path d="M256.5 77L216.5 171L289.3 164Z" fill="#5478ab" stroke="#5478ab"></path><path d="M289.3 164L216.5 171L298.3 204Z" fill="#96a8ca" stroke="#96a8ca"></path><path d="M337.3 350L403.1 390L377.1 286Z" fill="#abb9d5" stroke="#abb9d5"></path><path d="M154.6 350L279.5 363L261.5 284Z" fill="#6b88b5" stroke="#6b88b5"></path><path d="M261.5 284L279.5 363L337.3 350Z" fill="#d5dbea" stroke="#d5dbea"></path><path d="M337.3 350L298.3 452L403.1 390Z" fill="#5478ab" stroke="#5478ab"></path><path d="M564.7 271L556.7 195L505.9 197Z" fill="#d5dbea" stroke="#d5dbea"></path><path d="M505.9 197L556.7 195L476.9 116Z" fill="#3b69a0" stroke="#3b69a0"></path><path d="M386.1 64L293.3 57L289.3 164Z" fill="#96a8ca" stroke="#96a8ca"></path><path d="M403.1 390L514.9 343L427.1 263Z" fill="#5478ab" stroke="#5478ab"></path><path d="M514.9 310L564.7 271L505.9 197Z" fill="#3b69a0" stroke="#3b69a0"></path><path d="M189.6 193L196.6 266L234.5 247Z" fill="#6b88b5" stroke="#6b88b5"></path><path d="M234.5 247L196.6 266L261.5 284Z" fill="#5478ab" stroke="#5478ab"></path><path d="M293.3 57L256.5 77L289.3 164Z" fill="#6b88b5" stroke="#6b88b5"></path><path d="M171.6 114L189.6 193L216.5 171Z" fill="#6b88b5" stroke="#6b88b5"></path><path d="M216.5 171L189.6 193L234.5 247Z" fill="#ffffff" stroke="#ffffff"></path><path d="M561.7 369L564.7 271L514.9 310Z" fill="#165a96" stroke="#165a96"></path><path d="M534.7 70L474.9 47L476.9 116Z" fill="#c0cadf" stroke="#c0cadf"></path><path d="M476.9 116L474.9 47L386.1 64Z" fill="#6b88b5" stroke="#6b88b5"></path><path d="M386.1 64L354.3 0L293.3 57Z" fill="#5478ab" stroke="#5478ab"></path><path d="M595.7 115L534.7 70L476.9 116Z" fill="#d5dbea" stroke="#d5dbea"></path><path d="M154.6 350L267.5 412L279.5 363Z" fill="#3b69a0" stroke="#3b69a0"></path><path d="M279.5 363L267.5 412L337.3 350Z" fill="#d5dbea" stroke="#d5dbea"></path><path d="M435.1 0L386.1 64L474.9 47Z" fill="#5478ab" stroke="#5478ab"></path><path d="M435.1 0L354.3 0L386.1 64Z" fill="#d5dbea" stroke="#d5dbea"></path><path d="M293.3 57L276.5 0L256.5 77Z" fill="#165a96" stroke="#165a96"></path><path d="M522.9 0L435.1 0L474.9 47Z" fill="#abb9d5" stroke="#abb9d5"></path><path d="M256.5 77L171.6 114L216.5 171Z" fill="#5478ab" stroke="#5478ab"></path><path d="M84.8 294L154.6 350L196.6 266Z" fill="#3b69a0" stroke="#3b69a0"></path><path d="M166.6 80L171.6 114L256.5 77Z" fill="#3b69a0" stroke="#3b69a0"></path><path d="M459.9 450L561.7 369L514.9 343Z" fill="#ffffff" stroke="#ffffff"></path><path d="M514.9 343L561.7 369L514.9 310Z" fill="#d5dbea" stroke="#d5dbea"></path><path d="M459.9 450L514.9 343L403.1 390Z" fill="#165a96" stroke="#165a96"></path><path d="M556.7 195L595.7 115L476.9 116Z" fill="#165a96" stroke="#165a96"></path><path d="M645.5 184L595.7 115L556.7 195Z" fill="#3b69a0" stroke="#3b69a0"></path><path d="M645.5 184L556.7 195L564.7 271Z" fill="#abb9d5" stroke="#abb9d5"></path><path d="M354.3 0L276.5 0L293.3 57Z" fill="#c0cadf" stroke="#c0cadf"></path><path d="M425.1 472L459.9 450L403.1 390Z" fill="#165a96" stroke="#165a96"></path><path d="M267.5 412L298.3 452L337.3 350Z" fill="#d5dbea" stroke="#d5dbea"></path><path d="M201.6 0L166.6 80L256.5 77Z" fill="#abb9d5" stroke="#abb9d5"></path><path d="M298.3 452L425.1 472L403.1 390Z" fill="#abb9d5" stroke="#abb9d5"></path><path d="M196.6 266L154.6 350L261.5 284Z" fill="#d5dbea" stroke="#d5dbea"></path><path d="M225.5 557L313.3 497L298.3 452Z" fill="#eaedf4" stroke="#eaedf4"></path><path d="M84.8 294L196.6 266L57.8 250Z" fill="#6b88b5" stroke="#6b88b5"></path><path d="M196.6 266L189.6 193L57.8 250Z" fill="#abb9d5" stroke="#abb9d5"></path><path d="M534.7 70L522.9 0L474.9 47Z" fill="#ffffff" stroke="#ffffff"></path><path d="M564.7 0L522.9 0L534.7 70Z" fill="#96a8ca" stroke="#96a8ca"></path><path d="M642.5 403L622.5 324L561.7 369Z" fill="#abb9d5" stroke="#abb9d5"></path><path d="M561.7 369L622.5 324L564.7 271Z" fill="#abb9d5" stroke="#abb9d5"></path><path d="M622.5 324L645.5 184L564.7 271Z" fill="#5478ab" stroke="#5478ab"></path><path d="M595.7 115L631.5 95L534.7 70Z" fill="#ffffff" stroke="#ffffff"></path><path d="M276.5 0L201.6 0L256.5 77Z" fill="#3b69a0" stroke="#3b69a0"></path><path d="M645.5 184L631.5 95L595.7 115Z" fill="#8198c0" stroke="#8198c0"></path><path d="M225.5 557L298.3 452L267.5 412Z" fill="#96a8ca" stroke="#96a8ca"></path><path d="M298.3 452L313.3 497L425.1 472Z" fill="#6b88b5" stroke="#6b88b5"></path><path d="M631.5 95L564.7 0L534.7 70Z" fill="#8198c0" stroke="#8198c0"></path><path d="M425.1 472L469.9 497L459.9 450Z" fill="#8198c0" stroke="#8198c0"></path><path d="M459.9 450L599.7 428L561.7 369Z" fill="#abb9d5" stroke="#abb9d5"></path><path d="M381.1 561L469.9 497L425.1 472Z" fill="#5478ab" stroke="#5478ab"></path><path d="M68.8 185L189.6 193L171.6 114Z" fill="#ffffff" stroke="#ffffff"></path><path d="M154.6 350L142.6 463L267.5 412Z" fill="#5478ab" stroke="#5478ab"></path><path d="M469.9 497L599.7 428L459.9 450Z" fill="#165a96" stroke="#165a96"></path><path d="M90.8 49L171.6 114L166.6 80Z" fill="#6b88b5" stroke="#6b88b5"></path><path d="M90.8 49L68.8 185L171.6 114Z" fill="#165a96" stroke="#165a96"></path><path d="M622.5 324L689.5 208L645.5 184Z" fill="#3b69a0" stroke="#3b69a0"></path><path d="M645.5 184L715.4 117L631.5 95Z" fill="#eaedf4" stroke="#eaedf4"></path><path d="M739.4 288L689.5 208L622.5 324Z" fill="#96a8ca" stroke="#96a8ca"></path><path d="M68.8 185L57.8 250L189.6 193Z" fill="#d5dbea" stroke="#d5dbea"></path><path d="M599.7 428L642.5 403L561.7 369Z" fill="#3b69a0" stroke="#3b69a0"></path><path d="M201.6 0L90.8 49L166.6 80Z" fill="#abb9d5" stroke="#abb9d5"></path><path d="M68.8 185L0 245L57.8 250Z" fill="#5478ab" stroke="#5478ab"></path><path d="M140.6 486L142.6 463L98.8 486Z" fill="#6b88b5" stroke="#6b88b5"></path><path d="M44.8 394L142.6 463L154.6 350Z" fill="#8198c0" stroke="#8198c0"></path><path d="M370.1 600L381.1 561L312.3 600Z" fill="#8198c0" stroke="#8198c0"></path><path d="M313.3 497L381.1 561L425.1 472Z" fill="#ffffff" stroke="#ffffff"></path><path d="M634.5 513L640.5 459L599.7 428Z" fill="#ffffff" stroke="#ffffff"></path><path d="M599.7 428L640.5 459L642.5 403Z" fill="#eaedf4" stroke="#eaedf4"></path><path d="M689.5 208L715.4 117L645.5 184Z" fill="#5478ab" stroke="#5478ab"></path><path d="M631.5 95L678.5 0L564.7 0Z" fill="#abb9d5" stroke="#abb9d5"></path><path d="M760.4 257L715.4 117L689.5 208Z" fill="#c0cadf" stroke="#c0cadf"></path><path d="M634.5 513L599.7 428L604.7 555Z" fill="#5478ab" stroke="#5478ab"></path><path d="M714.4 389L739.4 288L622.5 324Z" fill="#165a96" stroke="#165a96"></path><path d="M44.8 394L154.6 350L84.8 294Z" fill="#6b88b5" stroke="#6b88b5"></path><path d="M142.6 463L225.5 557L267.5 412Z" fill="#abb9d5" stroke="#abb9d5"></path><path d="M714.4 389L622.5 324L642.5 403Z" fill="#c0cadf" stroke="#c0cadf"></path><path d="M140.6 486L225.5 557L142.6 463Z" fill="#3b69a0" stroke="#3b69a0"></path><path d="M715.4 117L678.5 0L631.5 95Z" fill="#c0cadf" stroke="#c0cadf"></path><path d="M0 332L44.8 394L84.8 294Z" fill="#6b88b5" stroke="#6b88b5"></path><path d="M710.4 458L714.4 389L642.5 403Z" fill="#5478ab" stroke="#5478ab"></path><path d="M0 112L0 245L68.8 185Z" fill="#8198c0" stroke="#8198c0"></path><path d="M57.8 250L0 332L84.8 294Z" fill="#3b69a0" stroke="#3b69a0"></path><path d="M312.3 600L381.1 561L313.3 497Z" fill="#abb9d5" stroke="#abb9d5"></path><path d="M381.1 561L488.9 600L469.9 497Z" fill="#165a96" stroke="#165a96"></path><path d="M140.6 486L133.6 600L225.5 557Z" fill="#c0cadf" stroke="#c0cadf"></path><path d="M44.8 394L98.8 486L142.6 463Z" fill="#165a96" stroke="#165a96"></path><path d="M820.2 346L760.4 257L739.4 288Z" fill="#6b88b5" stroke="#6b88b5"></path><path d="M739.4 288L760.4 257L689.5 208Z" fill="#3b69a0" stroke="#3b69a0"></path><path d="M764.4 55L727.4 0L678.5 0Z" fill="#ffffff" stroke="#ffffff"></path><path d="M225.5 557L312.3 600L313.3 497Z" fill="#3b69a0" stroke="#3b69a0"></path><path d="M640.5 459L710.4 458L642.5 403Z" fill="#3b69a0" stroke="#3b69a0"></path><path d="M604.7 555L599.7 428L469.9 497Z" fill="#ffffff" stroke="#ffffff"></path><path d="M201.6 0L53.8 0L90.8 49Z" fill="#3b69a0" stroke="#3b69a0"></path><path d="M90.8 49L0 112L68.8 185Z" fill="#8198c0" stroke="#8198c0"></path><path d="M0 44L0 112L90.8 49Z" fill="#96a8ca" stroke="#96a8ca"></path><path d="M0 245L0 332L57.8 250Z" fill="#6b88b5" stroke="#6b88b5"></path><path d="M44.8 394L72.8 493L98.8 486Z" fill="#5478ab" stroke="#5478ab"></path><path d="M370.1 600L488.9 600L381.1 561Z" fill="#8198c0" stroke="#8198c0"></path><path d="M133.6 600L240.5 600L225.5 557Z" fill="#6b88b5" stroke="#6b88b5"></path><path d="M225.5 557L240.5 600L312.3 600Z" fill="#ffffff" stroke="#ffffff"></path><path d="M571.7 600L604.7 555L469.9 497Z" fill="#8198c0" stroke="#8198c0"></path><path d="M0 432L72.8 493L44.8 394Z" fill="#6b88b5" stroke="#6b88b5"></path><path d="M98.8 486L133.6 600L140.6 486Z" fill="#8198c0" stroke="#8198c0"></path><path d="M753.4 555L710.4 458L634.5 513Z" fill="#6b88b5" stroke="#6b88b5"></path><path d="M634.5 513L710.4 458L640.5 459Z" fill="#165a96" stroke="#165a96"></path><path d="M714.4 389L820.2 346L739.4 288Z" fill="#c0cadf" stroke="#c0cadf"></path><path d="M764.4 55L678.5 0L715.4 117Z" fill="#c0cadf" stroke="#c0cadf"></path><path d="M53.8 0L0 44L90.8 49Z" fill="#3b69a0" stroke="#3b69a0"></path><path d="M834.2 94L764.4 55L715.4 117Z" fill="#d5dbea" stroke="#d5dbea"></path><path d="M0 332L0 413L44.8 394Z" fill="#8198c0" stroke="#8198c0"></path><path d="M488.9 600L571.7 600L469.9 497Z" fill="#96a8ca" stroke="#96a8ca"></path><path d="M792.2 499L791.2 435L710.4 458Z" fill="#c0cadf" stroke="#c0cadf"></path><path d="M0 413L0 432L44.8 394Z" fill="#abb9d5" stroke="#abb9d5"></path><path d="M53.8 0L0 0L0 44Z" fill="#165a96" stroke="#165a96"></path><path d="M94.8 600L98.8 486L72.8 493Z" fill="#ffffff" stroke="#ffffff"></path><path d="M94.8 600L133.6 600L98.8 486Z" fill="#c0cadf" stroke="#c0cadf"></path><path d="M834.2 94L779.2 0L764.4 55Z" fill="#c0cadf" stroke="#c0cadf"></path><path d="M764.4 55L779.2 0L727.4 0Z" fill="#8198c0" stroke="#8198c0"></path><path d="M791.2 435L714.4 389L710.4 458Z" fill="#3b69a0" stroke="#3b69a0"></path><path d="M791.2 435L820.2 346L714.4 389Z" fill="#ffffff" stroke="#ffffff"></path><path d="M849.2 122L834.2 94L715.4 117Z" fill="#6b88b5" stroke="#6b88b5"></path><path d="M0 432L0 494L72.8 493Z" fill="#96a8ca" stroke="#96a8ca"></path><path d="M669.5 600L634.5 513L604.7 555Z" fill="#ffffff" stroke="#ffffff"></path><path d="M0 600L94.8 600L72.8 493Z" fill="#6b88b5" stroke="#6b88b5"></path><path d="M853.2 203L715.4 117L760.4 257Z" fill="#165a96" stroke="#165a96"></path><path d="M900 301L848.2 285L820.2 346Z" fill="#8198c0" stroke="#8198c0"></path><path d="M820.2 346L848.2 285L760.4 257Z" fill="#c0cadf" stroke="#c0cadf"></path><path d="M848.2 285L853.2 203L760.4 257Z" fill="#abb9d5" stroke="#abb9d5"></path><path d="M571.7 600L669.5 600L604.7 555Z" fill="#8198c0" stroke="#8198c0"></path><path d="M853.2 203L849.2 122L715.4 117Z" fill="#d5dbea" stroke="#d5dbea"></path><path d="M753.4 555L792.2 499L710.4 458Z" fill="#eaedf4" stroke="#eaedf4"></path><path d="M900 380L900 301L820.2 346Z" fill="#8198c0" stroke="#8198c0"></path><path d="M669.5 600L753.4 555L634.5 513Z" fill="#3b69a0" stroke="#3b69a0"></path><path d="M669.5 600L737.4 600L753.4 555Z" fill="#6b88b5" stroke="#6b88b5"></path><path d="M753.4 555L792.2 600L792.2 499Z" fill="#d5dbea" stroke="#d5dbea"></path><path d="M848.2 285L900 201L853.2 203Z" fill="#6b88b5" stroke="#6b88b5"></path><path d="M853.2 203L900 201L849.2 122Z" fill="#eaedf4" stroke="#eaedf4"></path><path d="M849.2 122L900 90L834.2 94Z" fill="#165a96" stroke="#165a96"></path><path d="M834.2 94L900 0L779.2 0Z" fill="#eaedf4" stroke="#eaedf4"></path><path d="M900 301L900 201L848.2 285Z" fill="#165a96" stroke="#165a96"></path><path d="M900 380L820.2 346L791.2 435Z" fill="#3b69a0" stroke="#3b69a0"></path><path d="M900 380L791.2 435L900 457Z" fill="#96a8ca" stroke="#96a8ca"></path><path d="M900 201L900 111L849.2 122Z" fill="#6b88b5" stroke="#6b88b5"></path><path d="M0 494L0 600L72.8 493Z" fill="#5478ab" stroke="#5478ab"></path><path d="M900 111L900 90L849.2 122Z" fill="#c0cadf" stroke="#c0cadf"></path><path d="M900 457L791.2 435L792.2 499Z" fill="#8198c0" stroke="#8198c0"></path><path d="M737.4 600L792.2 600L753.4 555Z" fill="#96a8ca" stroke="#96a8ca"></path><path d="M900 90L900 0L834.2 94Z" fill="#5478ab" stroke="#5478ab"></path><path d="M900 549L900 457L792.2 499Z" fill="#abb9d5" stroke="#abb9d5"></path><path d="M792.2 600L900 549L792.2 499Z" fill="#d5dbea" stroke="#d5dbea"></path><path d="M792.2 600L900 600L900 549Z" fill="#d5dbea" stroke="#d5dbea"></path></g></svg>